<svg xmlns="http://www.w3.org/2000/svg" version="1.1" xmlns:xlink="http://www.w3.org/1999/xlink" xmlns:svgjs="http://svgjs.dev/svgjs" width="1500" height="939" viewBox="0 0 1500 939"><g transform="matrix(1,0,0,1,-0.9090909090909918,-1.4842258064516045)"><svg viewBox="0 0 396 248" data-background-color="#50a060" preserveAspectRatio="xMidYMid meet" height="939" width="1500" xmlns="http://www.w3.org/2000/svg" xmlns:xlink="http://www.w3.org/1999/xlink"><g id="tight-bounds" transform="matrix(1,0,0,1,0.2400000000000091,0.4000000000000057)"><svg viewBox="0 0 395.52 247.2" height="247.2" width="395.52"><g><svg></svg></g><g><svg viewBox="0 0 395.52 247.2" height="247.2" width="395.52"><mask id="2afab784-33dc-4360-a222-5818886411fe"><rect width="395.52" height="247.2" fill="white"></rect><g transform="matrix(1,0,0,1,0,70.02648927199476)" id="clone"><svg viewBox="0 0 395.52 107.14702145601048" height="107.14702145601048" width="395.52"><g><svg viewBox="0 0 395.52 107.14702145601048" height="107.14702145601048" width="395.52"><g><svg viewBox="0 0 395.52000000000004 107.14702145601049" height="107.14702145601048" width="395.52"><g><svg viewBox="0 0 395.52000000000004 107.14702145601049" height="107.14702145601049" width="395.52000000000004"><g id="SvgjsG4822"><svg viewBox="0 0 395.52000000000004 107.14702145601049" height="107.14702145601049" width="395.52000000000004" id="SvgjsSvg4821"><g><svg viewBox="0 0 395.52000000000004 107.14702145601049" height="107.14702145601049" width="395.52000000000004"><g transform="matrix(1,0,0,1,0,0)"><svg width="395.52000000000004" viewBox="-2.95 -39.74 157.32999999999998 43.35" height="107.14702145601049" data-palette-color="#454545"><path d="M15.28 0L10.72 0 0.05-33.84 4.27-33.84 9.67-15.28Q10.52-12.33 11.27-9.7 12.01-7.08 12.96-4.1L12.96-4.1 13.18-4.1Q14.16-7.08 14.86-9.7 15.55-12.33 16.48-15.28L16.48-15.28 22.19-33.84 26.32-33.84 15.28 0ZM40.21 0.61L40.21 0.61Q37.18 0.61 34.56-0.93 31.93-2.47 30.33-5.38 28.73-8.3 28.73-12.45L28.73-12.45Q28.73-16.63 30.33-19.57 31.93-22.51 34.56-24.06 37.18-25.61 40.21-25.61L40.21-25.61Q43.28-25.61 45.92-24.06 48.56-22.51 50.16-19.57 51.76-16.63 51.76-12.45L51.76-12.45Q51.76-8.3 50.16-5.38 48.56-2.47 45.92-0.93 43.28 0.61 40.21 0.61ZM40.21-2.66L40.21-2.66Q43.55-2.66 45.63-5.36 47.7-8.06 47.7-12.45L47.7-12.45Q47.7-16.87 45.63-19.59 43.55-22.31 40.21-22.31L40.21-22.31Q38.03-22.31 36.35-21.07 34.67-19.82 33.73-17.61 32.79-15.41 32.79-12.45L32.79-12.45Q32.79-8.06 34.86-5.36 36.94-2.66 40.21-2.66ZM62.74 0.61L62.74 0.61Q60.49 0.61 59.48-0.77 58.47-2.15 58.47-4.79L58.47-4.79 58.47-36.74 62.42-36.74 62.42-4.47Q62.42-3.47 62.79-3.06 63.15-2.66 63.67-2.66L63.67-2.66Q63.86-2.66 64.05-2.67 64.23-2.69 64.55-2.76L64.55-2.76 65.06 0.2Q64.64 0.37 64.06 0.49 63.47 0.61 62.74 0.61ZM77.19 0.61L77.19 0.61Q74.06 0.61 71.97-1.21 69.87-3.03 69.87-6.42L69.87-6.42Q69.87-10.52 73.59-12.72 77.31-14.92 85.34-15.82L85.34-15.82Q85.34-17.48 84.89-18.97 84.44-20.46 83.31-21.41 82.17-22.36 80.07-22.36L80.07-22.36Q77.85-22.36 75.91-21.51 73.97-20.65 72.5-19.73L72.5-19.73 70.96-22.36Q72.62-23.51 75.15-24.56 77.68-25.61 80.71-25.61L80.71-25.61Q85.27-25.61 87.28-22.8 89.3-20 89.3-15.41L89.3-15.41 89.3 0 86 0 85.69-3.03 85.54-3.03Q83.73-1.54 81.62-0.46 79.51 0.61 77.19 0.61ZM78.26-2.56L78.26-2.56Q80.14-2.56 81.79-3.44 83.44-4.32 85.34-5.96L85.34-5.96 85.34-13.18Q81.02-12.65 78.48-11.77 75.94-10.89 74.85-9.64 73.75-8.4 73.75-6.74L73.75-6.74Q73.75-4.52 75.07-3.54 76.38-2.56 78.26-2.56ZM101.24 0L97.28 0 97.28-24.98 100.58-24.98 100.94-20.46 101.04-20.46Q102.36-22.8 104.19-24.21 106.02-25.61 108.14-25.61L108.14-25.61Q109.76-25.61 110.78-25.1L110.78-25.1 109.9-21.73Q109.37-21.9 108.89-21.97 108.41-22.05 107.63-22.05L107.63-22.05Q106.04-22.05 104.29-20.74 102.53-19.43 101.24-16.16L101.24-16.16 101.24 0ZM122.67 0.61L122.67 0.61Q118.74 0.61 117.2-1.66 115.66-3.93 115.66-7.62L115.66-7.62 115.66-21.73 111.95-21.73 111.95-24.78 115.88-24.98 116.34-33.08 119.64-33.08 119.64-24.98 126.5-24.98 126.5-21.73 119.64-21.73 119.64-7.52Q119.64-5.2 120.5-3.91 121.35-2.61 123.55-2.61L123.55-2.61Q124.21-2.61 124.94-2.75 125.67-2.88 126.43-3.22L126.43-3.22 127.31-0.44Q126.31 0 125.11 0.31 123.91 0.61 122.67 0.61ZM142.2 0.61L142.2 0.61Q138.9 0.61 136.2-0.95 133.51-2.51 131.91-5.44 130.31-8.37 130.31-12.45L130.31-12.45Q130.31-16.53 131.91-19.48 133.51-22.44 136.07-24.02 138.63-25.61 141.49-25.61L141.49-25.61Q146.2-25.61 148.79-22.46 151.38-19.31 151.38-13.89L151.38-13.89Q151.38-12.52 151.23-11.57L151.23-11.57 134.21-11.57Q134.41-7.5 136.7-5 139-2.51 142.66-2.51L142.66-2.51Q144.54-2.51 146.1-3.02 147.67-3.52 149.01-4.42L149.01-4.42 150.4-1.95Q148.76-0.83 146.79-0.11 144.81 0.61 142.2 0.61ZM134.16-14.43L134.16-14.43 147.89-14.43Q147.89-18.36 146.23-20.41 144.57-22.46 141.54-22.46L141.54-22.46Q138.83-22.46 136.69-20.36 134.56-18.26 134.16-14.43Z" opacity="1" transform="matrix(1,0,0,1,0,0)" fill="black" class="wordmark-text-0" id="SvgjsPath4820" stroke-width="5" stroke="black" stroke-linejoin="round"></path></svg></g></svg></g></svg></g></svg></g><g></g></svg></g></svg></g></svg></g></mask><g mask="url(#2afab784-33dc-4360-a222-5818886411fe)"><g><path d="M213.065 247.208h-33.313l-77.949-247.216h30.829l39.449 135.589c4.14 14.367 8.036 27.955 11.689 40.764 3.604 12.76 7.719 26.397 12.346 40.91v0h1.607c4.773-14.513 8.864-28.15 12.274-40.91 3.36-12.809 7.305-26.397 11.834-40.764v0l41.714-135.589h30.172z" fill="#454545" fill-rule="nonzero" stroke="none" stroke-width="1" stroke-linecap="butt" stroke-linejoin="miter" stroke-miterlimit="10" stroke-dasharray="" stroke-dashoffset="0" font-family="none" font-weight="none" font-size="none" text-anchor="none" style="mix-blend-mode: normal" data-fill-palette-color="tertiary"></path></g></g><g transform="matrix(1,0,0,1,0,70.02648927199476)"><svg viewBox="0 0 395.52 107.14702145601048" height="107.14702145601048" width="395.52"><g><svg viewBox="0 0 395.52 107.14702145601048" height="107.14702145601048" width="395.52"><g><svg viewBox="0 0 395.52000000000004 107.14702145601049" height="107.14702145601048" width="395.52"><g><svg viewBox="0 0 395.52000000000004 107.14702145601049" height="107.14702145601049" width="395.52000000000004"><g id="textblocktransform"><svg viewBox="0 0 395.52000000000004 107.14702145601049" height="107.14702145601049" width="395.52000000000004" id="textblock"><g><svg viewBox="0 0 395.52000000000004 107.14702145601049" height="107.14702145601049" width="395.52000000000004"><g transform="matrix(1,0,0,1,0,0)"><svg width="395.52000000000004" viewBox="-2.95 -39.74 157.32999999999998 43.35" height="107.14702145601049" data-palette-color="#454545"><path d="M15.28 0L10.72 0 0.05-33.84 4.27-33.84 9.67-15.28Q10.52-12.33 11.27-9.7 12.01-7.08 12.96-4.1L12.96-4.1 13.18-4.1Q14.16-7.08 14.86-9.7 15.55-12.33 16.48-15.28L16.48-15.28 22.19-33.84 26.32-33.84 15.28 0ZM40.21 0.61L40.21 0.61Q37.18 0.61 34.56-0.93 31.93-2.47 30.33-5.38 28.73-8.3 28.73-12.45L28.73-12.45Q28.73-16.63 30.33-19.57 31.93-22.51 34.56-24.06 37.18-25.61 40.21-25.61L40.21-25.61Q43.28-25.61 45.92-24.06 48.56-22.51 50.16-19.57 51.76-16.63 51.76-12.45L51.76-12.45Q51.76-8.3 50.16-5.38 48.56-2.47 45.92-0.93 43.28 0.61 40.21 0.61ZM40.21-2.66L40.21-2.66Q43.55-2.66 45.63-5.36 47.7-8.06 47.7-12.45L47.7-12.45Q47.7-16.87 45.63-19.59 43.55-22.31 40.21-22.31L40.21-22.31Q38.03-22.31 36.35-21.07 34.67-19.82 33.73-17.61 32.79-15.41 32.79-12.45L32.79-12.45Q32.79-8.06 34.86-5.36 36.94-2.66 40.21-2.66ZM62.74 0.61L62.74 0.61Q60.49 0.61 59.48-0.77 58.47-2.15 58.47-4.79L58.47-4.79 58.47-36.74 62.42-36.74 62.42-4.47Q62.42-3.47 62.79-3.06 63.15-2.66 63.67-2.66L63.67-2.66Q63.86-2.66 64.05-2.67 64.23-2.69 64.55-2.76L64.55-2.76 65.06 0.2Q64.64 0.37 64.06 0.49 63.47 0.61 62.74 0.61ZM77.19 0.61L77.19 0.61Q74.06 0.61 71.97-1.21 69.87-3.03 69.87-6.42L69.87-6.42Q69.87-10.52 73.59-12.72 77.31-14.92 85.34-15.82L85.34-15.82Q85.34-17.48 84.89-18.97 84.44-20.46 83.31-21.41 82.17-22.36 80.07-22.36L80.07-22.36Q77.85-22.36 75.91-21.51 73.97-20.65 72.5-19.73L72.5-19.73 70.96-22.36Q72.62-23.51 75.15-24.56 77.68-25.61 80.71-25.61L80.71-25.61Q85.27-25.61 87.28-22.8 89.3-20 89.3-15.41L89.3-15.41 89.3 0 86 0 85.69-3.03 85.54-3.03Q83.73-1.54 81.62-0.46 79.51 0.61 77.19 0.61ZM78.26-2.56L78.26-2.56Q80.14-2.56 81.79-3.44 83.44-4.32 85.34-5.96L85.34-5.96 85.34-13.18Q81.02-12.65 78.48-11.77 75.94-10.89 74.85-9.64 73.75-8.4 73.75-6.74L73.75-6.74Q73.75-4.52 75.07-3.54 76.38-2.56 78.26-2.56ZM101.24 0L97.28 0 97.28-24.98 100.58-24.98 100.94-20.46 101.04-20.46Q102.36-22.8 104.19-24.21 106.02-25.61 108.14-25.61L108.14-25.61Q109.76-25.61 110.78-25.1L110.78-25.1 109.9-21.73Q109.37-21.9 108.89-21.97 108.41-22.05 107.63-22.05L107.63-22.05Q106.04-22.05 104.29-20.74 102.53-19.43 101.24-16.16L101.24-16.16 101.24 0ZM122.67 0.61L122.67 0.61Q118.74 0.61 117.2-1.66 115.66-3.93 115.66-7.62L115.66-7.62 115.66-21.73 111.95-21.73 111.95-24.78 115.88-24.98 116.34-33.08 119.64-33.08 119.64-24.98 126.5-24.98 126.5-21.73 119.64-21.73 119.64-7.52Q119.64-5.2 120.5-3.91 121.35-2.61 123.55-2.61L123.55-2.61Q124.21-2.61 124.94-2.75 125.67-2.88 126.43-3.22L126.43-3.22 127.31-0.44Q126.31 0 125.11 0.31 123.91 0.61 122.67 0.61ZM142.2 0.61L142.2 0.61Q138.9 0.61 136.2-0.95 133.51-2.51 131.91-5.44 130.31-8.37 130.31-12.45L130.31-12.45Q130.31-16.53 131.91-19.48 133.51-22.44 136.07-24.02 138.63-25.61 141.49-25.61L141.49-25.61Q146.2-25.61 148.79-22.46 151.38-19.31 151.38-13.89L151.38-13.89Q151.38-12.52 151.23-11.57L151.23-11.57 134.21-11.57Q134.41-7.5 136.7-5 139-2.51 142.66-2.51L142.66-2.51Q144.54-2.51 146.1-3.02 147.67-3.52 149.01-4.42L149.01-4.42 150.4-1.95Q148.76-0.83 146.79-0.11 144.81 0.61 142.2 0.61ZM134.16-14.43L134.16-14.43 147.89-14.43Q147.89-18.36 146.23-20.41 144.57-22.46 141.54-22.46L141.54-22.46Q138.83-22.46 136.69-20.36 134.56-18.26 134.16-14.43Z" opacity="1" transform="matrix(1,0,0,1,0,0)" fill="#454545" class="wordmark-text-0" data-fill-palette-color="primary" id="text-0"></path></svg></g></svg></g></svg></g></svg></g><g></g></svg></g></svg></g></svg></g></svg></g><defs></defs></svg><rect width="395.52" height="247.2" fill="none" stroke="none" visibility="hidden"></rect></g></svg></g></svg>